# xmcd
#
# Track frame offsets:
#	150
#	12225
#	27667
#	39585
#	48945
#	61397
#	72295
#	83517
#	96545
#	114617
#	125670
#	138757
#
# Disc length: 2022 seconds
#
# Revision: 0
# Processed by: cddbd v1.4PL0 Copyright (c) Steve Scherf et al.
# Submitted via: dBpowerAMP V4.0
#
DISCID=a407e40c
DTITLE=Tammy Wynette - Collection - Disk 1
DYEAR=1900
DGENRE=Country
TTITLE0=Tammy Wynette - Stand by your man
TTITLE1=Tammy Wynette - When a girl becomes a wife
TTITLE2=Tammy Wynette - Till I get it right
TTITLE3=Tammy Wynette - Dont come home a drinkin
TTITLE4=Tammy Wynette - We sure can love each other
TTITLE5=Tammy Wynette - I wound easy
TTITLE6=Tammy Wynette - Good lovin
TTITLE7=Tammy Wynette - My man
TTITLE8=Tammy Wynette - Please come to Boston
TTITLE9=Tammy Wynette - The ways to love a man
TTITLE10=Tammy Wynette - I'll see him through
TTITLE11=Tammy Wynette - Womanhood
EXTD=Tammy Wynette - Collection - Disk 1
EXTT0=
EXTT1=
EXTT2=
EXTT3=
EXTT4=
EXTT5=
EXTT6=
EXTT7=
EXTT8=
EXTT9=
EXTT10=
EXTT11=
PLAYORDER=
